<mxfile host="app.diagrams.net" modified="2024-06-11T18:07:10.653Z" agent="Mozilla/5.0 (Windows NT 10.0; Win64; x64) AppleWebKit/537.36 (KHTML, like Gecko) Chrome/125.0.0.0 Safari/537.36" version="24.3.1" etag="YNEE4v3oGluwQIod2SgZ" type="github">
  <diagram name="Страница — 1" id="96WMUJxD1zwZ0l2k9MP0">
    <mxGraphModel>
      <root>
        <mxCell id="0" />
        <mxCell id="1" parent="0" />
      </root>
    </mxGraphModel>
  </diagram>
</mxfile>
